<?xml version="1.0" standalone="no"?>
<!DOCTYPE svg PUBLIC "-//W3C//DTD SVG 20010904//EN"
 "http://www.w3.org/TR/2001/REC-SVG-20010904/DTD/svg10.dtd">
<svg version="1.0" xmlns="http://www.w3.org/2000/svg"
 width="400.000000pt" height="300.000000pt" viewBox="0 0 400.000000 300.000000"
 preserveAspectRatio="xMidYMid meet">

<g transform="translate(0.000000,300.000000) scale(0.100000,-0.100000)"
fill="#000000" stroke="none">
<path d="M1909 2294 c-11 -13 -11 -55 -1 -237 22 -386 32 -541 38 -584 8 -53
-3 -55 -52 -10 -34 31 -37 41 -98 287 -66 265 -88 320 -137 345 -36 19 -83 19
-99 0 -18 -22 -10 -65 60 -325 34 -129 80 -302 101 -384 21 -82 40 -149 41
-150 2 -1 40 -9 85 -18 201 -40 312 -138 313 -276 0 -67 -21 -113 -73 -157
-73 -63 -183 -68 -287 -15 -51 26 -52 18 -1 -15 175 -110 419 -79 560 70 94
99 131 209 131 390 0 133 8 162 94 333 51 101 66 142 66 175 0 52 -22 87 -56
87 -20 0 -36 -18 -91 -102 -36 -57 -86 -134 -111 -172 l-45 -70 -19 38 c-19
37 -19 38 2 123 12 46 42 146 66 221 58 177 64 235 32 282 -24 36 -65 57 -90
47 -9 -3 -30 -58 -52 -134 -110 -379 -131 -443 -142 -443 -7 0 -21 15 -32 33
-18 28 -21 56 -27 237 -8 248 -19 343 -45 385 -32 51 -103 73 -131 39z m230
-944 c66 -33 148 -116 181 -183 37 -77 50 -159 27 -181 -23 -24 -27 -20 -27
24 0 27 -5 43 -15 46 -9 4 -22 18 -30 33 -12 22 -14 23 -15 6 0 -17 -2 -17
-10 -5 -5 8 -10 26 -10 38 0 15 -7 26 -20 29 -16 4 -20 14 -20 44 0 32 -3 39
-20 39 -11 0 -20 6 -20 14 0 8 -6 17 -12 20 -10 5 -10 7 0 12 21 10 14 37 -9
31 -16 -4 -18 -3 -9 8 8 10 8 15 -1 21 -8 4 -9 3 -5 -4 4 -7 2 -12 -3 -12 -6
0 -11 6 -11 14 0 8 -6 17 -12 19 -7 3 -9 6 -5 6 4 1 25 -8 46 -19z m214 -397
c-6 -2 -9 -14 -7 -26 4 -20 4 -20 -6 2 -7 17 -7 28 2 38 10 12 13 12 17 2 2
-7 -1 -15 -6 -16z"/>
</g>
</svg>
