<svg width="32" height="32" viewBox="0 0 32 32" xmlns="http://www.w3.org/2000/svg">
    <g fill="none" fill-rule="evenodd">
        <path d="M0 0h32v32H0z"/>
        <path d="M0 0h32v32H0z"/>
        <path fill="#FEE6CD" d="M29 7v5.01l-1.992 1.993v3.9L29.105 20v5h-4.987V7"/>
        <path d="M7 6a1 1 0 0 1 .117 1.993L7 8H5a1 1 0 0 0-.993.883L4 9v1.74a1 1 0 0 0 .177.568l.076.096.99 1.113a3 3 0 0 1 .749 1.774l.008.22v2.979a3 3 0 0 1-.618 1.823l-.14.17-.99 1.113a1 1 0 0 0-.245.543L4 21.26V23a1 1 0 0 0 .883.993L5 24h22a1 1 0 0 0 .993-.883L28 23v-1.74a1 1 0 0 0-.177-.568l-.076-.096-.99-1.113a3 3 0 0 1-.749-1.774L26 17.49V14.51a3 3 0 0 1 .618-1.823l.14-.17.99-1.113a1 1 0 0 0 .245-.543L28 10.74V9a1 1 0 0 0-.883-.993L27 8H14a1 1 0 0 1-.117-1.993L14 6h13a3 3 0 0 1 2.995 2.824L30 9v1.74a3 3 0 0 1-.618 1.823l-.14.17-.99 1.113a1 1 0 0 0-.245.543L28 14.51v2.98a1 1 0 0 0 .177.568l.076.096.99 1.113a3 3 0 0 1 .749 1.774l.008.22V23a3 3 0 0 1-2.824 2.995L27 26H5a3 3 0 0 1-2.995-2.824L2 23v-1.74a3 3 0 0 1 .618-1.823l.14-.17.99-1.113a1 1 0 0 0 .245-.543L4 17.49v-2.98a1 1 0 0 0-.177-.568l-.076-.096-.99-1.113a3 3 0 0 1-.749-1.774L2 10.74V9a3 3 0 0 1 2.824-2.995L5 6h2zm5.345 6.609a2 2 0 0 1 2.645-.615l3.983 2.27a2 2 0 0 1 .002 3.474l-3.983 2.275A2 2 0 0 1 12 18.277v-4.545a2 2 0 0 1 .262-.99zM14 13.732v4.545L17.982 16 14 13.731zM11 6a1 1 0 0 1 .117 1.993L11 8h-1a1 1 0 0 1-.117-1.993L10 6h1z" fill="#FA901E" fill-rule="nonzero"/>
    </g>
</svg>
